<svg width="170" height="21" viewBox="0 0 170 21" fill="none" xmlns="http://www.w3.org/2000/svg">
<path d="M0 0C0 3.223 0 6.52275 0 9.74575C3.4807 13.2757 6.88571 16.7289 10.3664 20.2589C11.4257 18.0334 12.4851 15.8848 13.4688 13.6594C9.0044 9.05511 4.54004 4.52755 0 0Z" fill="#388FFF"/>
<path d="M0 0C0 3.223 0 6.52275 0 9.74575C3.4807 13.2757 6.88571 16.7289 10.3664 20.2589C11.4257 18.0334 12.4851 15.8848 13.4688 13.6594C9.0044 9.05511 4.54004 4.52755 0 0Z" fill="#141517"/>
<path d="M20.0504 0C17.856 4.52755 15.7373 9.13185 13.543 13.6594C15.6617 15.4244 17.7047 17.1126 19.8233 18.8776C22.0177 17.1126 24.2877 15.4244 26.4821 13.6594C24.3634 9.13185 22.169 4.52755 20.0504 0Z" fill="#388FFF"/>
<path d="M20.0504 0C17.856 4.52755 15.7373 9.13185 13.543 13.6594C15.6617 15.4244 17.7047 17.1126 19.8233 18.8776C22.0177 17.1126 24.2877 15.4244 26.4821 13.6594C24.3634 9.13185 22.169 4.52755 20.0504 0Z" fill="#141517"/>
<path d="M40.0274 0C40.0274 3.223 40.0274 6.52275 40.0274 9.74575C36.5467 13.2757 33.1416 16.7289 29.6609 20.2589C28.6016 18.0334 27.5423 15.8848 26.5586 13.6594C31.023 9.05511 35.4873 4.52755 40.0274 0Z" fill="#388FFF"/>
<path d="M40.0274 0C40.0274 3.223 40.0274 6.52275 40.0274 9.74575C36.5467 13.2757 33.1416 16.7289 29.6609 20.2589C28.6016 18.0334 27.5423 15.8848 26.5586 13.6594C31.023 9.05511 35.4873 4.52755 40.0274 0Z" fill="#141517"/>
<path d="M161.462 6.59167C162.433 5.60803 163.613 5.11621 165.003 5.11621C166.232 5.11621 167.308 5.52811 168.23 6.35191C169.165 7.16341 169.724 8.17164 169.909 9.37659C169.97 9.67168 170.001 9.94833 170.001 10.2065C170.001 10.4279 169.976 10.6369 169.927 10.8336H161.812C161.923 11.6574 162.273 12.3214 162.863 12.8255C163.466 13.3173 164.179 13.5632 165.003 13.5632C165.568 13.5632 166.109 13.4402 166.626 13.1943C167.155 12.9361 167.585 12.5919 167.917 12.1615L169.558 12.5857C169.165 13.3726 168.544 14.0058 167.696 14.4854C166.847 14.9649 165.95 15.2046 165.003 15.2046C163.589 15.2046 162.396 14.7128 161.425 13.7292C160.466 12.7456 159.986 11.559 159.986 10.1697C159.986 8.76797 160.478 7.57531 161.462 6.59167ZM161.812 9.41348H168.12C167.997 8.66346 167.646 8.03639 167.069 7.53227C166.491 7.01586 165.796 6.75766 164.984 6.75766C164.161 6.75766 163.454 7.01586 162.863 7.53227C162.273 8.03639 161.923 8.66346 161.812 9.41348Z" fill="#141517"/>
<path d="M150.673 6.59167C151.644 5.60803 152.824 5.11621 154.214 5.11621C155.247 5.11621 156.175 5.4113 156.999 6.00149C157.823 6.57937 158.425 7.33554 158.806 8.27L157.091 8.71264C156.82 8.13475 156.433 7.67367 155.929 7.3294C155.425 6.97283 154.853 6.79454 154.214 6.79454C153.292 6.79454 152.511 7.12652 151.872 7.79048C151.244 8.45443 150.931 9.24749 150.931 10.1697C150.931 11.0918 151.251 11.8849 151.89 12.5488C152.529 13.2005 153.304 13.5263 154.214 13.5263C154.853 13.5263 155.425 13.3542 155.929 13.0099C156.445 12.6533 156.833 12.1861 157.091 11.6082L158.806 12.0509C158.425 12.9976 157.823 13.7599 156.999 14.3378C156.187 14.9157 155.259 15.2046 154.214 15.2046C152.8 15.2046 151.607 14.7128 150.636 13.7292C149.677 12.7333 149.197 11.5467 149.197 10.1697C149.197 8.76797 149.689 7.57531 150.673 6.59167Z" fill="#141517"/>
<path d="M138.767 6.57322C139.713 5.60188 140.863 5.11621 142.216 5.11621C143.654 5.11621 144.779 5.68795 145.591 6.83143V5.2822H147.435V15.0571H145.591V13.5079C145.222 14.0366 144.742 14.4546 144.152 14.762C143.574 15.0571 142.929 15.2046 142.216 15.2046C140.863 15.2046 139.707 14.7128 138.748 13.7292C137.802 12.7333 137.328 11.5467 137.328 10.1697C137.328 8.75567 137.808 7.55686 138.767 6.57322ZM139.062 10.1697C139.062 11.0918 139.381 11.8849 140.021 12.5488C140.672 13.2005 141.459 13.5263 142.382 13.5263C143.291 13.5263 144.072 13.1943 144.724 12.5304C145.376 11.8664 145.701 11.0795 145.701 10.1697C145.701 9.24749 145.376 8.45443 144.724 7.79048C144.072 7.12652 143.291 6.79454 142.382 6.79454C141.447 6.79454 140.66 7.12652 140.021 7.79048C139.381 8.44214 139.062 9.2352 139.062 10.1697Z" fill="#141517"/>
<path d="M133.717 15.0567V2.14648H135.561V15.0567H133.717Z" fill="#141517"/>
<path d="M121.828 5.28134H123.672V6.81212C124.472 5.69323 125.597 5.13379 127.048 5.13379C128.388 5.13379 129.537 5.63176 130.496 6.62769C131.455 7.61133 131.935 8.79169 131.935 10.1688C131.935 11.5705 131.455 12.7631 130.496 13.7468C129.55 14.7181 128.4 15.2038 127.048 15.2038C126.334 15.2038 125.683 15.0562 125.093 14.7611C124.515 14.4538 124.041 14.0357 123.672 13.507V18.9293H121.828V5.28134ZM123.562 10.1688C123.562 11.0909 123.888 11.884 124.539 12.548C125.179 13.2119 125.959 13.5439 126.882 13.5439C127.804 13.5439 128.584 13.2119 129.224 12.548C129.876 11.884 130.201 11.0909 130.201 10.1688C130.201 9.23433 129.882 8.44127 129.242 7.78961C128.603 7.12566 127.816 6.79368 126.882 6.79368C125.972 6.79368 125.191 7.12566 124.539 7.78961C123.888 8.45357 123.562 9.24663 123.562 10.1688Z" fill="#141517"/>
<path d="M114.605 5.28156H116.45V7.05211C116.745 6.37585 117.175 5.89633 117.741 5.61354C118.306 5.31844 118.89 5.1709 119.493 5.1709C119.763 5.1709 120.04 5.19549 120.323 5.24467V7.2181C119.954 7.11973 119.604 7.07055 119.272 7.07055C118.657 7.07055 118.03 7.29802 117.39 7.75295C116.763 8.19558 116.45 8.9825 116.45 10.1137V15.0565H114.605V5.28156Z" fill="#141517"/>
<path d="M104.565 6.59167C105.537 5.60803 106.717 5.11621 108.106 5.11621C109.336 5.11621 110.412 5.52811 111.334 6.35191C112.268 7.16341 112.828 8.17164 113.012 9.37659C113.074 9.67168 113.105 9.94833 113.105 10.2065C113.105 10.4279 113.08 10.6369 113.031 10.8336H104.916C105.026 11.6574 105.377 12.3214 105.967 12.8255C106.569 13.3173 107.283 13.5632 108.106 13.5632C108.672 13.5632 109.213 13.4402 109.729 13.1943C110.258 12.9361 110.688 12.5919 111.02 12.1615L112.662 12.5857C112.268 13.3726 111.647 14.0058 110.799 14.4854C109.951 14.9649 109.053 15.2046 108.106 15.2046C106.692 15.2046 105.5 14.7128 104.528 13.7292C103.569 12.7456 103.09 11.559 103.09 10.1697C103.09 8.76797 103.582 7.57531 104.565 6.59167ZM104.916 9.41348H111.223C111.1 8.66346 110.75 8.03639 110.172 7.53227C109.594 7.01586 108.899 6.75766 108.088 6.75766C107.264 6.75766 106.557 7.01586 105.967 7.53227C105.377 8.03639 105.026 8.66346 104.916 9.41348Z" fill="#141517"/>
<path d="M92.6593 6.57286C93.606 5.60151 94.7557 5.11584 96.1082 5.11584C97.5467 5.11584 98.6718 5.68758 99.4833 6.83106V2.14648H101.328V15.0567H99.4833V13.5259C98.6718 14.6448 97.5467 15.2043 96.1082 15.2043C94.7557 15.2043 93.5999 14.7125 92.6408 13.7288C91.6941 12.7329 91.2207 11.5464 91.2207 10.1693C91.2207 8.7553 91.7002 7.55649 92.6593 6.57286ZM93.9134 12.5485C94.5528 13.2001 95.3397 13.5259 96.2741 13.5259C97.184 13.5259 97.9648 13.194 98.6164 12.53C99.2681 11.8661 99.5939 11.0791 99.5939 10.1693C99.5939 9.24712 99.2681 8.45406 98.6164 7.79011C97.9771 7.12615 97.1963 6.79417 96.2741 6.79417C95.352 6.79417 94.5651 7.12615 93.9134 7.79011C93.274 8.45406 92.9544 9.24712 92.9544 10.1693C92.9544 11.1037 93.274 11.8968 93.9134 12.5485Z" fill="#141517"/>
<path d="M80.5469 5.2822H82.3912V6.7761C83.1412 5.66951 84.2109 5.11621 85.6003 5.11621C86.7192 5.11621 87.6844 5.47893 88.4959 6.20436C89.3074 6.92979 89.7132 7.89499 89.7132 9.09995V15.0571H87.8688V9.6348C87.8688 8.77411 87.6106 8.09172 87.0942 7.5876C86.5901 7.08349 85.9753 6.83143 85.2499 6.83143C84.4138 6.83143 83.7253 7.13882 83.1843 7.75359C82.6555 8.35607 82.3912 9.11839 82.3912 10.0405V15.0571H80.5469V5.2822Z" fill="#141517"/>
<path d="M69.0117 10.1512C69.0117 8.76182 69.4974 7.57531 70.4687 6.59167C71.4524 5.60803 72.6389 5.11621 74.0283 5.11621C75.4177 5.11621 76.598 5.61418 77.5694 6.61011C78.553 7.59375 79.0448 8.77412 79.0448 10.1512C79.0448 11.5406 78.5592 12.7271 77.5878 13.7107C76.6042 14.7067 75.4177 15.2046 74.0283 15.2046C72.6389 15.2046 71.4524 14.7128 70.4687 13.7292C69.4974 12.7333 69.0117 11.5406 69.0117 10.1512ZM70.7454 10.1512C70.7454 11.0857 71.0651 11.8787 71.7044 12.5304C72.3438 13.182 73.1184 13.5079 74.0283 13.5079C74.9381 13.5079 75.7128 13.182 76.3521 12.5304C76.9915 11.8664 77.3112 11.0734 77.3112 10.1512C77.3112 9.22905 76.9915 8.44214 76.3521 7.79048C75.725 7.13882 74.9504 6.81299 74.0283 6.81299C73.1061 6.81299 72.3253 7.13882 71.686 7.79048C71.0589 8.44214 70.7454 9.22905 70.7454 10.1512Z" fill="#141517"/>
<path d="M54.1836 5.28223H56.0464L58.0751 13.6554L60.0116 5.28223H62.6121L64.5302 13.6739L66.559 5.28223H68.4218L65.8581 15.0571H63.2208L61.3211 6.57325L59.403 15.0571H56.7472L54.1836 5.28223Z" fill="#141517"/>
</svg>
