<svg width="128" height="39" viewBox="0 0 128 39" fill="none" xmlns="http://www.w3.org/2000/svg">
<path d="M45.4194 15.3549C44.3871 14.9033 43.6129 14.2903 43.0645 13.4839C42.5162 12.6774 42.2258 11.6774 42.2258 10.5807C42.2258 9.45162 42.5162 8.48388 43.0645 7.67743C43.6452 6.87098 44.4194 6.2258 45.4516 5.80645C46.4839 5.38709 47.6452 5.16129 48.9678 5.16129C50.0323 5.16129 50.9355 5.32258 51.742 5.61291C52.5484 5.90323 53.3871 6.38711 54.2903 7.03227L53.3226 8.48388C52.8065 8.1613 52.3549 7.87098 51.9678 7.67743C51.5807 7.48388 51.0968 7.29034 50.5161 7.16131C49.9355 7.00002 49.2903 6.93548 48.5484 6.93548C47.6129 6.93548 46.8387 7.0968 46.1613 7.45164C45.4839 7.80648 45 8.25807 44.6452 8.80646C44.2903 9.38711 44.1291 9.99999 44.1291 10.6452C44.1291 11.3548 44.3226 11.9678 44.7097 12.5161C45.0968 13.0645 45.6452 13.5161 46.3871 13.8387C47.1291 14.1613 48 14.3226 49.0323 14.3226C49.6774 14.3226 50.2581 14.2581 50.7742 14.0968C51.2903 13.9678 51.742 13.7742 52.129 13.5807C52.5161 13.3871 52.9355 13.129 53.3871 12.8387L54.3226 14.2903C53.742 14.6774 53.2581 15 52.8387 15.2258C52.4516 15.4516 51.9032 15.6452 51.2581 15.8064C50.6129 15.9677 49.8387 16.0645 48.9678 16.0645C47.6129 16 46.4194 15.7742 45.4194 15.3549Z" fill="#141517"/>
<path d="M55.3228 8.3226H64.6131V9.96775H60.9357V15.7742H59.1292V9.96775H55.3228V8.3226Z" fill="#141517"/>
<path d="M72.7097 14.4516C71.6774 15.4839 70.3871 16.0323 68.8387 16.0323C67.7742 16.0323 66.9677 15.8065 66.3871 15.3871C65.8064 14.9355 65.5161 14.3871 65.5161 13.6452C65.5161 12.6774 66 12 67 11.6129C68 11.2258 69.2581 11 70.8064 11H72.7097C72.7097 10.0645 71.9032 9.61291 70.3226 9.61291C68.871 9.61291 67.5806 9.96774 66.5161 10.6452L65.6774 9.32258C66.1613 9.03226 66.5806 8.83871 66.9355 8.67742C67.2903 8.51613 67.7419 8.38712 68.2903 8.29034C68.8387 8.19357 69.5161 8.12905 70.3226 8.12905C71.3871 8.12905 72.2258 8.25807 72.8387 8.51613C73.4516 8.7742 73.871 9.12904 74.129 9.61291C74.3871 10.0968 74.5161 10.7097 74.5161 11.4839V15.8387H72.7419V14.4516H72.7097ZM67.6452 14.1935C67.871 14.3226 68.2581 14.4194 68.8064 14.4194C69.5161 14.4194 70.2581 14.3226 70.9677 14.0968C71.6774 13.871 72.258 13.5484 72.7097 13.0968V12.3871H70.9355C69.6774 12.3871 68.7419 12.4839 68.1613 12.6452C67.5806 12.8065 67.2903 13.129 67.2903 13.5484C67.2903 13.8387 67.4194 14.0645 67.6452 14.1935Z" fill="#141517"/>
<path d="M75.6775 15.871V14.2581H75.9678C76.2259 14.2581 76.484 14.1936 76.6775 14.0323C76.8711 13.871 77.0646 13.5162 77.2259 12.9678C77.3872 12.4194 77.4839 11.6129 77.5807 10.5484L77.742 8.3226H85.0323V15.7742H83.2581V9.96775H79.3226L79.1936 11.2903C79.0323 13.0645 78.7097 14.2903 78.2581 15C77.8065 15.6774 77.2259 16.0323 76.5807 16.0323C76.1614 16 75.9033 15.9678 75.6775 15.871Z" fill="#141517"/>
<path d="M86.9033 8.3226H88.6775V10.2581H91.8065C92.9678 10.2581 93.8388 10.5161 94.3872 11.0645C94.9356 11.6129 95.2582 12.2581 95.2582 13.0645C95.2582 13.5484 95.1291 14 94.9033 14.4194C94.6453 14.8387 94.2904 15.1613 93.742 15.3871C93.2259 15.6452 92.5807 15.7742 91.8065 15.7742H86.9033V8.3226ZM91.742 14.1936C92.2259 14.1936 92.6453 14.0968 92.9679 13.9033C93.2904 13.7097 93.4517 13.4194 93.4517 13.0645C93.4517 12.2258 92.8711 11.8065 91.742 11.8065H88.7098V14.1936H91.742Z" fill="#141517"/>
<path d="M103.839 12.7742H98.3872V15.7742H96.613V8.3226H98.3872V11.129H103.839V8.3226H105.613V15.7742H103.839V12.7742Z" fill="#141517"/>
<path d="M109.645 15.5162C108.903 15.1936 108.323 14.7419 107.903 14.1613C107.484 13.5806 107.29 12.871 107.29 12.0323C107.29 11.1936 107.484 10.4839 107.903 9.90325C108.323 9.3226 108.903 8.87096 109.645 8.54838C110.387 8.2258 111.258 8.0968 112.258 8.0968C113.258 8.0968 114.129 8.25806 114.871 8.54838C115.613 8.83871 116.194 9.29034 116.613 9.90325C117.032 10.4839 117.226 11.1936 117.226 12.0323C117.226 12.871 117.032 13.5806 116.613 14.1613C116.194 14.7419 115.613 15.1936 114.871 15.5162C114.129 15.8387 113.258 16 112.258 16C111.258 16 110.387 15.8387 109.645 15.5162ZM109.935 13.8387C110.484 14.2903 111.258 14.4839 112.258 14.4839C113.258 14.4839 114.032 14.2581 114.581 13.8387C115.129 13.3871 115.387 12.8065 115.387 12.0323C115.387 11.2903 115.129 10.6774 114.581 10.2581C114.032 9.80646 113.258 9.61291 112.258 9.61291C111.258 9.61291 110.484 9.83872 109.935 10.2581C109.387 10.7097 109.129 11.2903 109.129 12.0323C109.097 12.8065 109.387 13.3871 109.935 13.8387Z" fill="#141517"/>
<path d="M118.871 8.32259H120.645V13.871L125.645 8.32259H128V15.7742H126.226V9.96775L120.935 15.7742H118.871V8.32259ZM121.226 6.96777C120.645 6.67745 120.387 6.12903 120.387 5.32258H122.193C122.193 5.64516 122.29 5.871 122.484 6.00003C122.677 6.12906 123 6.22582 123.451 6.22582C123.903 6.22582 124.226 6.12906 124.419 6.00003C124.613 5.871 124.71 5.64516 124.71 5.32258H126.516C126.516 6.06451 126.226 6.6129 125.645 6.93548C125.064 7.25806 124.322 7.41935 123.451 7.41935C122.516 7.41935 121.774 7.29035 121.226 6.96777Z" fill="#141517"/>
<path d="M42.8066 23.2258H49.3228C50.097 23.2258 50.7744 23.3549 51.3228 23.6452C51.8712 23.9355 52.2905 24.3226 52.5808 24.8387C52.8712 25.3548 53.0002 25.9032 53.0002 26.5484C53.0002 27.1936 52.8712 27.742 52.5808 28.2581C52.2905 28.742 51.9034 29.1613 51.3228 29.4194C50.7744 29.7097 50.097 29.8387 49.3228 29.8387H44.6454V33.6452H42.8066V23.2258ZM49.0647 28.1613C49.6776 28.1613 50.1937 28.0323 50.5808 27.7742C50.9679 27.5162 51.1615 27.0968 51.1615 26.5162C51.1615 25.9355 50.9679 25.5161 50.5808 25.2581C50.1937 25 49.6776 24.871 49.0647 24.871H44.6776V28.1613H49.0647Z" fill="#141517"/>
<path d="M56.7096 33.4194C55.9676 33.0968 55.387 32.6452 54.9676 32.0645C54.5483 31.4839 54.3547 30.742 54.3547 29.9355C54.3547 29.0968 54.5483 28.3871 54.9676 27.8065C55.3547 27.2258 55.9354 26.7419 56.6773 26.4516C57.4192 26.129 58.258 25.9677 59.258 25.9677C60.1934 25.9677 60.9999 26.129 61.7096 26.4516C62.4192 26.7742 62.9999 27.2258 63.387 27.8387C63.7741 28.4194 63.9999 29.129 63.9999 29.9355C63.9999 30.0968 63.9676 30.2904 63.9354 30.5162H56.0644C56.2257 31.0968 56.6128 31.5484 57.1934 31.871C57.7741 32.1936 58.4838 32.3871 59.3225 32.3871C60.0967 32.3871 60.7418 32.3226 61.258 32.1613C61.7741 32 62.2902 31.742 62.8386 31.3549L63.6451 32.6774C62.516 33.4839 61.0644 33.9033 59.3225 33.9033C58.3225 33.9033 57.4838 33.742 56.7096 33.4194ZM62.0644 29.0645C61.8709 28.5484 61.5483 28.1613 61.0321 27.871C60.5483 27.5807 59.9354 27.4516 59.2257 27.4516C58.4192 27.4516 57.7741 27.5807 57.2257 27.871C56.6773 28.1613 56.3225 28.5484 56.1289 29.0645H62.0644Z" fill="#141517"/>
<path d="M65.613 26.1936H73.5485V27.8387H67.3872V33.6452H65.613V26.1936Z" fill="#141517"/>
<path d="M74.645 26.1936H76.4192V31.7419L81.4192 26.1936H83.7741V33.6452H81.9999V27.8387L76.7095 33.6452H74.645V26.1936Z" fill="#141517"/>
<path d="M87.7743 33.4194C87.0323 33.0968 86.4517 32.6452 86.0323 32.0645C85.613 31.4839 85.4194 30.7742 85.4194 29.9355C85.4194 29.0968 85.613 28.3871 86.0323 27.8065C86.4517 27.2258 87.0323 26.7742 87.7743 26.4516C88.5162 26.129 89.3872 26 90.3872 26C91.3872 26 92.2581 26.1613 93.0001 26.4516C93.742 26.7419 94.3227 27.1936 94.742 27.8065C95.1614 28.3871 95.3549 29.0968 95.3549 29.9355C95.3549 30.7742 95.1614 31.4839 94.742 32.0645C94.3227 32.6452 93.742 33.0968 93.0001 33.4194C92.2581 33.742 91.3872 33.9033 90.3872 33.9033C89.3872 33.871 88.5162 33.7097 87.7743 33.4194ZM88.0646 31.7419C88.613 32.1936 89.3872 32.3871 90.3872 32.3871C91.3872 32.3871 92.1614 32.1613 92.7097 31.7419C93.2581 31.2903 93.5162 30.7097 93.5162 29.9355C93.5162 29.1936 93.2581 28.5807 92.7097 28.1613C92.1614 27.7097 91.3872 27.5161 90.3872 27.5161C89.3872 27.5161 88.613 27.7419 88.0646 28.1613C87.5162 28.6129 87.2581 29.1936 87.2581 29.9355C87.2581 30.6774 87.5162 31.2903 88.0646 31.7419Z" fill="#141517"/>
<path d="M104.258 30.6452H98.8064V33.6452H97.0322V26.1936H98.8064V29H104.258V26.1936H106.032V33.6452H104.258V30.6452Z" fill="#141517"/>
<path d="M13.3871 34.3871C13.3871 35.871 13.3871 37.3871 13.3871 38.871C19.3226 35.4516 25.2258 32.0323 31.1613 28.6129C31.1613 21.8065 31.1613 15 31.1613 8.19355C30.129 8.7742 29.129 9.35485 28.0968 9.96775L3.87097 23.9678C3.87097 20.1613 3.87097 16.3548 3.87097 12.5484C7.19355 10.6452 10.5484 8.70968 13.871 6.77419V10.2258C11.5484 11.5807 9.2258 12.9032 6.90322 14.2581C6.90322 15.742 6.90322 17.2258 6.90322 18.742C12.8387 15.3226 18.8064 11.871 24.7419 8.45163C24.7419 6.96776 24.7419 5.48389 24.7419 3.96776C22.4193 5.3226 20.0645 6.64518 17.7419 8.00001V4.51613C17.7419 4.51613 17.7742 4.51614 17.7742 4.48388C17.7742 3.00001 17.7742 1.48387 17.7742 0C11.8387 3.41935 5.93548 6.83872 0 10.2581C0 17.0645 0 23.871 0 30.6774C1.29032 29.9355 2.58064 29.1936 3.87097 28.4194C3.87097 28.4194 3.87097 28.4193 3.87097 28.3871C11.6774 23.9032 19.4839 19.3871 27.2903 14.9032C27.2903 18.7097 27.2903 22.5162 27.2903 26.3226C23.9677 28.2258 20.6129 30.1613 17.2903 32.0645V28.6129C19.6129 27.2581 21.9355 25.9355 24.2581 24.5807C24.2581 23.0968 24.2581 21.6129 24.2581 20.0968C18.3226 23.5161 12.3548 26.9678 6.41935 30.3871C6.41935 31.871 6.41935 33.3549 6.41935 34.871C8.74193 33.5162 11.0968 32.1936 13.4193 30.8387V34.3226C13.4193 34.3871 13.3871 34.3871 13.3871 34.3871Z" fill="#FF4800"/>
</svg>
