<svg width="143" height="44" viewBox="0 0 143 44" fill="none" xmlns="http://www.w3.org/2000/svg">
<path d="M50.7398 17.441C49.5865 16.9365 48.7216 16.2517 48.1089 15.3507C47.4962 14.4497 47.1719 13.3325 47.1719 12.1071C47.1719 10.8457 47.4962 9.76456 48.1089 8.86357C48.7576 7.96258 49.6226 7.24177 50.7758 6.77325C51.9291 6.30474 53.2265 6.05246 54.7042 6.05246C55.8935 6.05246 56.9026 6.23267 57.8036 6.55702C58.7045 6.88138 59.6416 7.42198 60.6507 8.14277L59.5695 9.76456C58.9929 9.40416 58.4883 9.0798 58.0558 8.86357C57.6234 8.64733 57.0828 8.4311 56.434 8.28694C55.7853 8.10674 55.0646 8.03464 54.2356 8.03464C53.1905 8.03464 52.3255 8.21487 51.5687 8.61131C50.8119 9.00774 50.2713 9.51228 49.8748 10.125C49.4784 10.7737 49.2982 11.4584 49.2982 12.1792C49.2982 12.9721 49.5144 13.6568 49.9469 14.2695C50.3794 14.8822 50.9921 15.3867 51.821 15.7471C52.6499 16.1075 53.623 16.2877 54.7762 16.2877C55.497 16.2877 56.1457 16.2157 56.7224 16.0355C57.299 15.8913 57.8036 15.6751 58.236 15.4588C58.6685 15.2426 59.137 14.9543 59.6416 14.6299L60.6867 16.2517C60.038 16.6842 59.4974 17.0446 59.0289 17.2968C58.5964 17.5491 57.9838 17.7653 57.263 17.9455C56.5422 18.1257 55.6772 18.2339 54.7042 18.2339C53.1905 18.1618 51.857 17.9095 50.7398 17.441Z" fill="white"/>
<path d="M61.8027 9.58436H72.1821V11.4224H68.0736V17.9095H66.0554V11.4224H61.8027V9.58436Z" fill="white"/>
<path d="M81.2302 16.4319C80.0769 17.5851 78.6353 18.1978 76.9054 18.1978C75.7161 18.1978 74.8151 17.9456 74.1664 17.477C73.5177 16.9725 73.1934 16.3598 73.1934 15.5309C73.1934 14.4497 73.734 13.6929 74.8512 13.2604C75.9684 12.8279 77.374 12.5757 79.1039 12.5757H81.2302C81.2302 11.5305 80.3292 11.0259 78.5633 11.0259C76.9415 11.0259 75.4999 11.4224 74.3106 12.1792L73.3736 10.7016C73.9142 10.3772 74.3827 10.161 74.7791 9.98078C75.1755 9.80058 75.6801 9.65644 76.2928 9.54832C76.9055 9.44021 77.6623 9.36813 78.5633 9.36813C79.7526 9.36813 80.6896 9.51227 81.3744 9.80058C82.0591 10.0889 82.5276 10.4853 82.8159 11.0259C83.1043 11.5665 83.2484 12.2513 83.2484 13.1163V17.9816H81.2662V16.4319H81.2302ZM75.572 16.1435C75.8243 16.2877 76.2567 16.3958 76.8694 16.3958C77.6623 16.3958 78.4912 16.2877 79.2841 16.0355C80.0769 15.7832 80.7256 15.4228 81.2302 14.9182V14.1253H79.248C77.8425 14.1253 76.7973 14.2335 76.1486 14.4137C75.4999 14.5939 75.1755 14.9542 75.1755 15.4228C75.1755 15.7471 75.3197 15.9994 75.572 16.1435Z" fill="white"/>
<path d="M84.543 18.0176V16.2157H84.8673C85.1557 16.2157 85.444 16.1435 85.6602 15.9633C85.8764 15.7832 86.0927 15.3867 86.2729 14.7741C86.4531 14.1614 86.5612 13.2604 86.6693 12.0711L86.8495 9.58436H94.9945V17.9095H93.0123V11.4224H88.6154L88.4713 12.9C88.2911 14.8822 87.9307 16.2517 87.4261 17.0445C86.9216 17.8014 86.2729 18.1978 85.5521 18.1978C85.0836 18.1618 84.7952 18.1258 84.543 18.0176Z" fill="white"/>
<path d="M97.0879 9.58436H99.0701V11.7467H102.566C103.863 11.7467 104.836 12.0351 105.449 12.6477C106.062 13.2604 106.422 13.9812 106.422 14.8822C106.422 15.4228 106.278 15.9273 106.026 16.3959C105.737 16.8644 105.341 17.2248 104.728 17.477C104.152 17.7654 103.431 17.9095 102.566 17.9095H97.0879V9.58436ZM102.494 16.1435C103.034 16.1435 103.503 16.0355 103.863 15.8192C104.224 15.603 104.404 15.2786 104.404 14.8822C104.404 13.9451 103.755 13.4767 102.494 13.4767H99.1061V16.1435H102.494Z" fill="white"/>
<path d="M116.006 14.5578H109.916V17.9095H107.934V9.58436H109.916V12.7198H116.006V9.58436H117.989V17.9095H116.006V14.5578Z" fill="white"/>
<path d="M122.494 17.6212C121.665 17.2608 121.017 16.7562 120.548 16.1075C120.08 15.4588 119.863 14.6659 119.863 13.7289C119.863 12.7919 120.08 11.999 120.548 11.3503C121.017 10.7016 121.665 10.197 122.494 9.83662C123.323 9.47622 124.296 9.3321 125.413 9.3321C126.531 9.3321 127.504 9.51226 128.333 9.83662C129.161 10.161 129.81 10.6656 130.279 11.3503C130.747 11.999 130.963 12.7919 130.963 13.7289C130.963 14.6659 130.747 15.4588 130.279 16.1075C129.81 16.7562 129.161 17.2608 128.333 17.6212C127.504 17.9816 126.531 18.1618 125.413 18.1618C124.296 18.1618 123.323 17.9816 122.494 17.6212ZM122.819 15.7471C123.431 16.2517 124.296 16.4679 125.413 16.4679C126.531 16.4679 127.396 16.2156 128.008 15.7471C128.621 15.2426 128.909 14.5939 128.909 13.7289C128.909 12.9 128.621 12.2153 128.008 11.7467C127.396 11.2422 126.531 11.0259 125.413 11.0259C124.296 11.0259 123.431 11.2782 122.819 11.7467C122.206 12.2513 121.918 12.9 121.918 13.7289C121.882 14.5939 122.206 15.2426 122.819 15.7471Z" fill="white"/>
<path d="M132.799 9.58436H134.781V15.7832L140.367 9.58436H142.998V17.9095H141.016V11.4224L135.105 17.9095H132.799V9.58436ZM135.43 8.07071C134.781 7.74636 134.493 7.13365 134.493 6.23266H136.511C136.511 6.59305 136.619 6.84537 136.835 6.98953C137.052 7.13368 137.412 7.24179 137.916 7.24179C138.421 7.24179 138.781 7.13368 138.998 6.98953C139.214 6.84537 139.322 6.59305 139.322 6.23266H141.34C141.34 7.06157 141.016 7.67424 140.367 8.03464C139.718 8.39503 138.89 8.57523 137.916 8.57523C136.871 8.57523 136.042 8.43111 135.43 8.07071Z" fill="white"/>
<path d="M47.8184 26.2346H55.0984C55.9633 26.2346 56.7201 26.3788 57.3328 26.7032C57.9455 27.0275 58.414 27.46 58.7384 28.0366C59.0627 28.6133 59.2069 29.2259 59.2069 29.9467C59.2069 30.6675 59.0627 31.2802 58.7384 31.8569C58.414 32.3974 57.9815 32.866 57.3328 33.1543C56.7201 33.4786 55.9633 33.6228 55.0984 33.6228H49.8726V37.8755H47.8184V26.2346ZM54.81 31.7487C55.4948 31.7487 56.0714 31.6046 56.5039 31.3163C56.9364 31.0279 57.1526 30.5594 57.1526 29.9107C57.1526 29.262 56.9364 28.7935 56.5039 28.5052C56.0714 28.2168 55.4948 28.0727 54.81 28.0727H49.9087V31.7487H54.81Z" fill="white"/>
<path d="M63.3535 37.6232C62.5246 37.2628 61.8759 36.7582 61.4074 36.1095C60.9389 35.4608 60.7227 34.6319 60.7227 33.7309C60.7227 32.7939 60.9389 32.001 61.4074 31.3523C61.8399 30.7036 62.4886 30.163 63.3175 29.8386C64.1464 29.4782 65.0834 29.298 66.2007 29.298C67.2458 29.298 68.1468 29.4782 68.9397 29.8386C69.7326 30.199 70.3813 30.7036 70.8137 31.3883C71.2462 32.037 71.4985 32.8299 71.4985 33.7309C71.4985 33.9111 71.4625 34.1273 71.4264 34.3796H62.6328C62.8129 35.0283 63.2454 35.5329 63.8941 35.8933C64.5428 36.2537 65.3357 36.4699 66.2728 36.4699C67.1377 36.4699 67.8585 36.3978 68.4351 36.2176C69.0118 36.0374 69.5884 35.7491 70.2011 35.3166L71.1021 36.7943C69.8407 37.6953 68.2189 38.1638 66.2728 38.1638C65.1555 38.1638 64.2185 37.9836 63.3535 37.6232ZM69.3361 32.7578C69.1199 32.1812 68.7595 31.7487 68.1828 31.4244C67.6423 31.1 66.9575 30.9559 66.1646 30.9559C65.2636 30.9559 64.5429 31.1 63.9302 31.4244C63.3175 31.7487 62.9211 32.1812 62.7048 32.7578H69.3361Z" fill="white"/>
<path d="M73.2988 29.5503H82.1646V31.3883H75.281V37.8754H73.2988V29.5503Z" fill="white"/>
<path d="M83.3906 29.5503H85.3728V35.7491L90.9589 29.5503H93.5899V37.8754H91.6077V31.3883L85.6972 37.8754H83.3906V29.5503Z" fill="white"/>
<path d="M98.0586 37.6232C97.2297 37.2628 96.581 36.7582 96.1125 36.1095C95.644 35.4608 95.4277 34.6679 95.4277 33.7309C95.4277 32.7939 95.644 32.001 96.1125 31.3523C96.581 30.7036 97.2297 30.199 98.0586 29.8386C98.8875 29.4782 99.8606 29.3341 100.978 29.3341C102.095 29.3341 103.068 29.5142 103.897 29.8386C104.726 30.163 105.375 30.6675 105.843 31.3523C106.312 32.001 106.528 32.7939 106.528 33.7309C106.528 34.6679 106.312 35.4608 105.843 36.1095C105.375 36.7582 104.726 37.2628 103.897 37.6232C103.068 37.9836 102.095 38.1638 100.978 38.1638C99.8606 38.1277 98.8875 37.9475 98.0586 37.6232ZM98.383 35.7491C98.9957 36.2537 99.8606 36.4699 100.978 36.4699C102.095 36.4699 102.96 36.2176 103.573 35.7491C104.185 35.2445 104.474 34.5958 104.474 33.7309C104.474 32.902 104.185 32.2172 103.573 31.7487C102.96 31.2442 102.095 31.0279 100.978 31.0279C99.8606 31.0279 98.9957 31.2802 98.383 31.7487C97.7703 32.2533 97.482 32.902 97.482 33.7309C97.482 34.5598 97.7703 35.2445 98.383 35.7491Z" fill="white"/>
<path d="M116.475 34.5237H110.385V37.8754H108.402V29.5503H110.385V32.6857H116.475V29.5503H118.457V37.8754H116.475V34.5237Z" fill="white"/>
<path d="M14.9564 38.7044C14.9564 40.3622 14.9564 42.056 14.9564 43.7139C21.5877 39.8937 28.183 36.0735 34.8142 32.2533C34.8142 24.6489 34.8142 17.0446 34.8142 9.4402C33.661 10.0889 32.5438 10.7376 31.3905 11.4224L4.32475 27.0636C4.32475 22.8109 4.32475 18.5582 4.32475 14.3055C8.03683 12.1792 11.785 10.0168 15.497 7.85445V11.7107C12.9022 13.2244 10.3073 14.702 7.71247 16.2157C7.71247 17.8735 7.71247 19.5313 7.71247 21.2252C14.3438 17.405 21.0111 13.5487 27.6424 9.72853C27.6424 8.07071 27.6424 6.41288 27.6424 4.71902C25.0475 6.23268 22.4166 7.71031 19.8218 9.22397V5.33168C19.8218 5.33168 19.8578 5.33169 19.8578 5.29565C19.8578 3.63782 19.8578 1.94395 19.8578 0.286133C13.2265 4.10633 6.63129 7.92655 0 11.7467C0 19.3511 0 26.9555 0 34.5598C1.44158 33.7309 2.88317 32.902 4.32475 32.0371C4.32475 32.0371 4.32475 32.037 4.32475 32.001C13.0463 26.9915 21.7679 21.946 30.4895 16.9365C30.4895 21.1891 30.4895 25.4418 30.4895 29.6945C26.7774 31.8208 23.0293 33.9832 19.3172 36.1095V32.2533C21.9121 30.7396 24.5069 29.262 27.1018 27.7483C27.1018 26.0905 27.1018 24.4327 27.1018 22.7388C20.4705 26.559 13.8032 30.4153 7.17188 34.2355C7.17188 35.8933 7.17188 37.5511 7.17188 39.245C9.76673 37.7313 12.3976 36.2537 14.9925 34.74V38.6323C14.9925 38.7044 14.9564 38.7044 14.9564 38.7044Z" fill="#FF4800"/>
</svg>
