<svg width="540" height="677" viewBox="0 0 540 677" fill="none" xmlns="http://www.w3.org/2000/svg">
<path d="M182.934 690.91C182.934 720.724 182.934 751.186 182.934 781C302.172 712.298 420.762 643.596 540 574.894C540 438.138 540 301.382 540 164.626C519.263 176.292 499.174 187.959 478.437 200.273L-8.23601 481.563C-8.23601 405.083 -8.23601 328.604 -8.23601 252.124C58.5114 213.884 125.907 174.996 192.654 136.108V205.459C145.996 232.68 99.3375 259.254 52.6791 286.475C52.6791 316.289 52.6791 346.104 52.6791 376.566C171.917 307.864 291.803 238.513 411.041 169.811C411.041 139.997 411.041 110.183 411.041 79.7206C364.383 106.942 317.077 133.516 270.418 160.737V90.7386C270.418 90.7386 271.066 90.7387 271.066 90.0906C271.066 60.2765 271.066 29.8141 271.066 0C151.828 68.7021 33.2381 137.404 -86 206.107C-86 342.863 -86 479.619 -86 616.375C-60.0787 601.468 -34.1573 586.561 -8.23601 571.006C-8.23601 571.006 -8.23601 571.005 -8.23601 570.357C148.588 480.266 305.412 389.528 462.236 299.438C462.236 375.918 462.236 452.397 462.236 528.877C395.489 567.117 328.093 606.004 261.346 644.244V574.894C308.004 547.673 354.663 521.099 401.321 493.878C401.321 464.064 401.321 434.249 401.321 403.787C282.083 472.489 162.197 541.839 42.9586 610.542C42.9586 640.356 42.9586 670.17 42.9586 700.632C89.617 673.411 136.923 646.837 183.582 619.616V689.613C183.582 690.91 182.934 690.91 182.934 690.91Z" fill="#141517" fill-opacity="0.05"/>
</svg>
