<svg width="56" height="56" viewBox="0 0 56 56" fill="none" xmlns="http://www.w3.org/2000/svg">
<circle cx="28" cy="28" r="28" fill="#FF4800"/>
<g clip-path="url(#clip0_431_2499)">
<mask id="mask0_431_2499" style="mask-type:luminance" maskUnits="userSpaceOnUse" x="15" y="15" width="26" height="26">
<path d="M41 15H15V41H41V15Z" fill="white"/>
</mask>
<g mask="url(#mask0_431_2499)">
<path d="M28.0033 15H27.9967C20.8289 15 15 20.8305 15 28C15 30.8438 15.9165 33.4795 17.4749 35.6196L15.8548 40.4491L20.8516 38.8518C22.9072 40.2135 25.3594 41 28.0033 41C35.1711 41 41 35.1679 41 28C41 20.8321 35.1711 15 28.0033 15ZM35.5676 33.3576C35.254 34.2432 34.0093 34.9777 33.0164 35.1922C32.3371 35.3369 31.4499 35.4523 28.4631 34.214C24.6427 32.6313 22.1825 28.7491 21.9908 28.4972C21.8071 28.2454 20.447 26.4416 20.447 24.5761C20.447 22.7106 21.3944 21.8023 21.7762 21.4123C22.0899 21.0921 22.6082 20.9459 23.1055 20.9459C23.2664 20.9459 23.411 20.954 23.541 20.9605C23.9229 20.9767 24.1146 20.9995 24.3665 21.6024C24.6801 22.358 25.4439 24.2235 25.5349 24.4152C25.6275 24.607 25.7201 24.867 25.5901 25.1189C25.4683 25.3789 25.361 25.4942 25.1692 25.7153C24.9775 25.9362 24.7955 26.1053 24.6038 26.3425C24.4282 26.5489 24.23 26.7699 24.451 27.1518C24.672 27.5255 25.4358 28.7719 26.5602 29.7729C28.0114 31.0647 29.1879 31.4775 29.6087 31.653C29.9224 31.783 30.2961 31.7521 30.5252 31.5084C30.8161 31.1947 31.1752 30.6748 31.5409 30.1629C31.8009 29.7956 32.1291 29.7501 32.4736 29.8801C32.8246 30.002 34.682 30.9201 35.0639 31.1102C35.4457 31.302 35.6976 31.393 35.7902 31.5539C35.8813 31.7148 35.8812 32.4704 35.5676 33.3576Z" fill="white"/>
</g>
</g>
<defs>
<clipPath id="clip0_431_2499">
<rect width="26" height="26" fill="white" transform="translate(15 15)"/>
</clipPath>
</defs>
</svg>
